<svg viewBox="0 0 24 24" xmlns="http://www.w3.org/2000/svg">
    <path fill="#f59e0b" d="M23.638 14.904c-1.602 6.43-8.113 10.34-14.542 8.736C2.67 22.05-1.244 15.525.362 9.105 1.962 2.67 8.475-1.243 14.9.358c6.43 1.605 10.342 8.115 8.738 14.546z"/>
    <path fill="white" d="M17.274 10.515c.235-1.572-.962-2.417-2.599-2.981l.531-2.13-1.296-.323-.517 2.074c-.341-.085-.691-.165-1.039-.243l.521-2.087L11.58 4.5l-.531 2.13c-.283-.065-.56-.128-.829-.196l.002-.007-1.788-.446-.345 1.385s.962.22.942.234c.525.131.62.478.604.754l-.604 2.425c.036.009.083.022.135.042l-.137-.034-.847 3.396c-.064.158-.227.395-.594.305.013.019-.942-.235-.942-.235l-.643 1.485 1.688.421c.314.079.621.161.923.239l-.537 2.154 1.296.323.531-2.13c.355.096.699.185 1.035.269l-.53 2.121 1.297.323.537-2.15c2.211.419 3.873.25 4.573-1.75.564-1.61-.028-2.538-1.191-3.144.847-.195 1.485-.752 1.656-1.903zm-2.963 4.153c-.401 1.61-3.11.74-3.99.522l.712-2.854c.88.22 3.697.654 3.278 2.332zm.401-4.176c-.365 1.464-2.621.72-3.353.538l.645-2.587c.732.182 3.089.522 2.708 2.049z"/>
</svg>